<svg id="visual" viewBox="0 0 900 600" width="900" height="600" xmlns="http://www.w3.org/2000/svg" xmlns:xlink="http://www.w3.org/1999/xlink" version="1.1"><rect x="0" y="0" width="900" height="600" fill="#001220"></rect><defs><linearGradient id="grad1_0" x1="33.3%" y1="0%" x2="100%" y2="100%"><stop offset="20%" stop-color="#001220" stop-opacity="1"></stop><stop offset="80%" stop-color="#001220" stop-opacity="1"></stop></linearGradient></defs><defs><linearGradient id="grad2_0" x1="0%" y1="0%" x2="66.7%" y2="100%"><stop offset="20%" stop-color="#001220" stop-opacity="1"></stop><stop offset="80%" stop-color="#001220" stop-opacity="1"></stop></linearGradient></defs><g transform="translate(900, 0)"><path d="M0 216.3C-25.9 207.4 -51.9 198.5 -78.5 189.4C-105 180.2 -132.2 170.8 -153 153C-173.8 135.1 -188.2 108.8 -197.7 81.9C-207.2 55 -211.8 27.5 -216.3 0L0 0Z" fill="#FBAE3C"></path></g><g transform="translate(0, 600)"><path d="M0 -216.3C26 -207.9 51.9 -199.4 78.8 -190.3C105.8 -181.3 133.7 -171.6 153 -153C172.3 -134.3 183 -106.6 192.2 -79.6C201.3 -52.6 208.8 -26.3 216.3 0L0 0Z" fill="#FBAE3C"></path></g></svg>